#!OML:ASF F:\VICON\USERDATA\INSTALL\rory3\rory3.ASF
:FULLY-SPECIFIED
:DEGREES
4019
root -2.35594 9.65338 1.17912 1.63942 -2.6591 3.19439
lowerback 46.6832 1.08103 -3.36396
upperback 10.1889 -0.264295 0.0996117
thorax -9.85678 -0.113133 1.93827
lowerneck -19.428 -1.21085 -5.17302
upperneck -11.2822 -0.355643 7.23013
head -0.349855 0.0951315 3.29118
rclavicle 1.04362e-014 1.44119e-015
rhumerus 20.1961 -22.154 -49.789
rradius 87.6347
rwrist -37.3906
rhand -17.3761 8.82628
rfingers 7.12502
rthumb 8.87243 -20.9672
lclavicle 1.04362e-014 1.44119e-015
lhumerus 25.9523 9.37613 44.0972
lradius 70.1766
lwrist 36.4036
lhand -23.2993 13.64
lfingers 7.12502
lthumb 3.15407 43.5964
rfemur -94.5465 -31.2507 15.0942
rtibia 131.714
rfoot -35.1089 -2.01529
rtoes -7.79995
lfemur -89.7755 4.60908 -26.6682
ltibia 131.067
lfoot -38.5267 21.3378
ltoes -15.5271
4020
root -2.35999 9.74443 1.1836 1.93232 -2.46354 2.92616
lowerback 46.2306 0.870823 -3.00249
upperback 10.1544 -0.321682 0.172269
thorax -9.78558 -0.142546 1.86047
lowerneck -19.2588 -1.17321 -5.26417
upperneck -11.402 -0.289216 7.20629
head -0.421768 0.128386 3.30298
rclavicle 1.68967e-015 -1.09332e-015
rhumerus 19.894 -22.2502 -49.6912
rradius 87.8418
rwrist -37.3412
rhand -17.2426 8.70293
rfingers 7.12502
rthumb 9.00122 -21.085
lclavicle 1.68967e-015 -1.09332e-015
lhumerus 25.3482 9.42861 44.2272
lradius 70.6277
lwrist 36.369
lhand -23.3639 13.5965
lfingers 7.12502
lthumb 3.09171 43.5539
rfemur -93.9551 -30.7986 15.3754
rtibia 131.033
rfoot -35.1886 -2.4774
rtoes -7.73624
lfemur -89.5096 4.49926 -26.2727
ltibia 130.413
lfoot -38.3969 21.1644
ltoes -15.4388
4021
root -2.36492 9.84559 1.18342 2.23506 -2.38184 2.8353
lowerback 45.8221 0.799253 -2.87715
upperback 10.1118 -0.330218 0.214986
thorax -9.73097 -0.147772 1.84771
lowerneck -19.4748 -1.16864 -5.23279
upperneck -11.1805 -0.294561 7.09038
head -0.312991 0.128352 3.25723
rclavicle -3.57812e-015 1.19271e-015
rhumerus 19.507 -22.4373 -49.5791
rradius 88.0996
rwrist -37.3966
rhand -17.1094 8.70283
rfingers 7.12502
rthumb 9.1298 -21.0796
lclavicle -3.57812e-015 1.19271e-015
lhumerus 24.7992 9.48952 44.3249
lradius 71.0687
lwrist 36.322
lhand -23.4094 13.6144
lfingers 7.12502
lthumb 3.04777 43.5724
rfemur -93.4366 -30.2743 15.5197
rtibia 130.292
rfoot -35.1959 -2.92896
rtoes -7.70328
lfemur -89.16 4.40488 -26.082
ltibia 129.651
lfoot -38.2393 21.1234
ltoes -15.5757
4022
root -2.37415 9.9332 1.18977 2.46533 -2.44245 2.59338
lowerback 45.5067 0.791982 -2.74228
upperback 10.0456 -0.264289 0.26668
thorax -9.72915 -0.12016 1.80684
lowerneck -19.5527 -1.20607 -5.23052
upperneck -11.1011 -0.348738 7.01789
head -0.270756 0.101559 3.22847
rclavicle 7.15625e-015 8.94531e-015
rhumerus 19.0594 -22.6347 -49.6237
rradius 88.4354
rwrist -37.4373
rhand -17.0083 8.59553
rfingers 7.12502
rthumb 9.22734 -21.1826
lclavicle 7.15625e-015 8.94531e-015
lhumerus 24.2081 9.53955 44.3369
lradius 71.5286
lwrist 36.2544
lhand -23.4975 13.7961
lfingers 7.12502
lthumb 2.96263 43.7552
rfemur -92.9018 -29.4756 15.7736
rtibia 129.626
rfoot -35.2243 -3.49579
rtoes -7.92073
lfemur -88.8606 4.74794 -25.769
ltibia 129.03
lfoot -38.0981 20.8503
ltoes -15.6101
4023
root -2.39002 9.99439 1.20307 2.73275 -2.45891 2.19447
lowerback 45.153 0.760758 -2.47466
upperback 9.95481 -0.15961 0.381906
thorax -9.74722 -0.0769291 1.74993
lowerneck -19.2646 -1.35865 -5.3779
upperneck -11.3947 -0.52789 6.95974
head -0.404284 0.00867355 3.2231
rclavicle 6.65929e-015 1.2921e-015
rhumerus 18.6576 -22.8139 -49.6236
rradius 88.6645
rwrist -37.3696
rhand -17.0103 8.82956
rfingers 7.12502
rthumb 9.22541 -20.9486
lclavicle 6.65929e-015 1.2921e-015
lhumerus 23.5932 9.57534 44.4119
lradius 72.0284
lwrist 36.1504
lhand -23.4855 14.1545
lfingers 7.12502
lthumb 2.97423 44.1135
rfemur -92.5544 -28.6101 16.2039
rtibia 129.133
rfoot -35.2168 -4.12295
rtoes -8.21186
lfemur -88.8835 5.34925 -25.325
ltibia 128.618
lfoot -37.8158 20.4624
ltoes -15.7836
4024
root -2.40127 10.0848 1.20651 3.0077 -2.47027 1.89233
lowerback 44.7583 0.725057 -2.21978
upperback 9.89137 -0.0716527 0.454674
thorax -9.71981 -0.0405292 1.66059
lowerneck -19.1856 -1.38713 -5.39732
upperneck -11.4377 -0.564484 6.94098
head -0.42905 -0.0107892 3.21751
rclavicle -5.56597e-015 3.47873e-015
rhumerus 18.2612 -23.0677 -49.5847
rradius 88.8902
rwrist -37.439
rhand -16.9717 9.02365
rfingers 7.12502
rthumb 9.26265 -20.7529
lclavicle -5.56597e-015 3.47873e-015
lhumerus 23.1347 9.6549 44.5395
lradius 72.4388
lwrist 35.9775
lhand -23.4519 14.1854
lfingers 7.12502
lthumb 3.0067 44.144
rfemur -91.9994 -27.7355 16.5352
rtibia 128.412
rfoot -35.1711 -4.818
rtoes -8.55809
lfemur -88.6656 5.75419 -24.9623
ltibia 127.994
lfoot -37.652 20.1148
ltoes -15.823
4025
root -2.40997 10.1721 1.21312 3.15441 -2.49942 1.75742
lowerback 44.4482 0.709791 -2.09382
upperback 9.85594 -0.0239928 0.488372
thorax -9.67869 -0.0207643 1.61232
lowerneck -19.4155 -1.22625 -5.34171
upperneck -11.0679 -0.360533 7.01024
head -0.279841 0.0979075 3.24528
rclavicle 4.57205e-015 1.39149e-015
rhumerus 17.9189 -23.381 -49.5662
rradius 89.128
rwrist -37.5315
rhand -16.8697 8.94574
rfingers 7.12502
rthumb 9.36104 -20.8264
lclavicle 4.57205e-015 1.39149e-015
lhumerus 22.6388 9.75606 44.6397
lradius 72.8698
lwrist 35.9576
lhand -23.581 14.1715
lfingers 7.12502
lthumb 2.88198 44.1318
rfemur -91.3679 -27.0987 16.5956
rtibia 127.753
rfoot -35.1944 -5.15675
rtoes -8.58777
lfemur -88.2828 6.02889 -24.763
ltibia 127.372
lfoot -37.5758 19.8836
ltoes -16.0995
4026
root -2.414 10.2548 1.23236 3.02434 -2.40595 2.26539
lowerback 44.2499 0.722592 -2.41697
upperback 9.85609 -0.154446 0.380744
thorax -9.61563 -0.0738125 1.71868
lowerneck -19.3405 -1.19768 -5.3771
upperneck -10.969 -0.322046 7.02001
head -0.260315 0.118228 3.25735
rclavicle -3.08116e-015 1.88845e-015
rhumerus 17.4676 -23.6122 -49.4703
rradius 89.4337
rwrist -37.618
rhand -16.9222 8.77861
rfingers 7.12502
rthumb 9.31037 -20.9958
lclavicle -3.08116e-015 1.88845e-015
lhumerus 21.9965 9.80769 44.7269
lradius 73.3755
lwrist 35.9855
lhand -23.7337 14.0997
lfingers 7.12502
lthumb 2.73458 44.0619
rfemur -90.5001 -27.3051 15.7652
rtibia 127.262
rfoot -35.3515 -4.84126
rtoes -8.55223
lfemur -87.3379 5.72524 -25.2101
ltibia 126.687
lfoot -37.7965 19.9402
ltoes -16.1583
4027
root -2.40591 10.363 1.26742 2.24617 -2.31254 4.19387
lowerback 44.3563 0.962637 -3.8109
upperback 10.0299 -0.52173 -0.0706772
thorax -9.40745 -0.222019 2.102
lowerneck -19.0463 -1.36894 -5.48121
upperneck -11.1995 -0.539657 6.92736
head -0.37126 0.00406952 3.22911
rclavicle 5.26779e-015 1.98785e-016
rhumerus 16.9565 -23.853 -49.3877
rradius 89.8004
rwrist -37.6534
rhand -17.2898 8.76551
rfingers 7.12502
rthumb 8.95568 -21.0244
lclavicle 5.26779e-015 1.98785e-016
lhumerus 21.3911 9.92364 44.9246
lradius 73.8912
lwrist 35.8248
lhand -23.8688 13.9759
lfingers 7.12502
lthumb 2.60406 43.9397
rfemur -88.7449 -28.6533 12.8969
rtibia 126.771
rfoot -35.6745 -3.57299
rtoes -8.66942
lfemur -84.8443 4.40688 -27.173
ltibia 125.587
lfoot -38.6389 20.9102
ltoes -16.2189
4028
root -2.41498 10.4511 1.27903 2.32125 -2.34081 4.1061
lowerback 44.0045 0.955131 -3.74713
upperback 10.0512 -0.486081 -0.0547494
thorax -9.28949 -0.209404 2.07186
lowerneck -18.9247 -1.47176 -5.49428
upperneck -11.3619 -0.678858 6.82844
head -0.4375 -0.0702302 3.18778
rclavicle -2.18663e-015 2.18663e-015
rhumerus 16.6507 -24.139 -49.4274
rradius 90.0855
rwrist -37.719
rhand -17.5431 9.00768
rfingers 7.12502
rthumb 8.71123 -20.7926
lclavicle -2.18663e-015 2.18663e-015
lhumerus 20.7991 10.1232 45.0648
lradius 74.4134
lwrist 35.5137
lhand -24.3211 13.9156
lfingers 7.12502
lthumb 2.16722 43.8844
rfemur -88.0165 -28.0269 12.8744
rtibia 126.105
rfoot -35.7271 -3.8801
rtoes -8.58072
lfemur -84.334 4.70556 -27.0326
ltibia 124.913
lfoot -38.5362 20.6718
ltoes -16.2261
4029
root -2.42821 10.5396 1.29438 2.34852 -2.3237 3.97886
lowerback 43.6263 0.938985 -3.70663
upperback 10.082 -0.466698 -0.0162587
thorax -9.15094 -0.205042 2.08492
lowerneck -18.8735 -1.44518 -5.35115
upperneck -11.3415 -0.679156 6.68634
head -0.441187 -0.0784503 3.10997
rclavicle -3.47873e-015 6.95746e-016
rhumerus 16.3988 -24.4248 -49.5437
rradius 90.3366
rwrist -37.7594
rhand -17.3889 9.01328
rfingers 7.12502
rthumb 8.86009 -20.7807
lclavicle -3.47873e-015 6.95746e-016
lhumerus 20.2265 10.2821 45.1165
lradius 74.8421
lwrist 35.1784
lhand -24.7595 13.9521
lfingers 7.12502
lthumb 1.7438 43.9248
rfemur -87.1824 -27.4594 12.8907
rtibia 125.424
rfoot -35.8187 -4.16099
rtoes -8.5297
lfemur -83.7498 4.98582 -26.803
ltibia 124.243
lfoot -38.3595 20.4725
ltoes -16.4548
